<?xml version="1.0" encoding="iso-8859-1"?>
<!-- Uploaded to: SVG Repo, www.svgrepo.com, Generator: SVG Repo Mixer Tools -->
<!DOCTYPE svg PUBLIC "-//W3C//DTD SVG 1.1//EN" "http://www.w3.org/Graphics/SVG/1.1/DTD/svg11.dtd">
<svg fill="#000000" height="800px" width="800px" version="1.1" id="Capa_1" xmlns="http://www.w3.org/2000/svg" xmlns:xlink="http://www.w3.org/1999/xlink" 
	 viewBox="0 0 448.31 448.31" xml:space="preserve">
<g>
	<path d="M286.735,166.049c-2.929,2.929-2.929,7.678,0,10.606c1.464,1.465,3.384,2.197,5.303,2.197s3.839-0.732,5.303-2.197
		c40.353-40.354,40.353-106.017,0-146.372c-2.929-2.929-7.678-2.929-10.606,0c-2.929,2.929-2.929,7.677,0,10.606
		C321.239,75.397,321.24,131.543,286.735,166.049z"/>
	<path d="M265.898,23.554c2.567,6.085,11.516,6.043,13.917-0.173c1.194-3.093,0.156-6.737-2.512-8.712
		c-2.371-1.755-5.613-1.952-8.18-0.504C265.868,16,264.473,20.103,265.898,23.554C266.088,24.004,265.708,23.094,265.898,23.554z"/>
	<path d="M156.273,178.853c1.919,0,3.839-0.732,5.303-2.197c2.929-2.929,2.929-7.677,0-10.606
		c-34.505-34.506-34.505-90.652,0-125.159C178.273,24.195,200.497,15,224.155,15c8.947,0,17.755,1.313,26.178,3.903
		c3.958,1.216,8.156-1.006,9.373-4.965c1.217-3.959-1.006-8.156-4.965-9.373C244.888,1.536,234.597,0,224.155,0
		c-27.665,0-53.656,10.755-73.186,30.285c-40.353,40.354-40.353,106.017,0,146.372C152.434,178.121,154.353,178.853,156.273,178.853
		z"/>
	<path d="M263.4,153.321c1.464,1.465,3.384,2.197,5.303,2.197c1.919,0,3.839-0.732,5.303-2.197c13.297-13.296,20.62-31,20.62-49.851
		c0-18.851-7.323-36.555-20.62-49.851c-27.488-27.488-72.214-27.488-99.702,0c-13.297,13.296-20.62,31-20.62,49.851
		c0,18.85,7.323,36.554,20.62,49.851c2.929,2.929,7.678,2.929,10.606,0c2.929-2.929,2.929-7.678,0-10.606
		c-10.463-10.463-16.226-24.401-16.226-39.244c0-14.844,5.763-28.781,16.226-39.245S209.312,48,224.155,48
		c14.844,0,28.781,5.762,39.245,16.226s16.226,24.401,16.226,39.245c0,14.843-5.763,28.781-16.226,39.244
		C260.47,145.643,260.47,150.392,263.4,153.321z"/>
	<path d="M290.037,399.31h-3.02l-44.654-263.074c11.496-6.414,19.291-18.694,19.291-32.767c0-20.678-16.822-37.5-37.5-37.5
		s-37.5,16.822-37.5,37.5c0,14.073,7.796,26.353,19.292,32.767L161.293,399.31h-3.02c-10.412,0-18.882,8.47-18.882,18.882v22.618
		c0,4.142,3.358,7.5,7.5,7.5h154.528c4.142,0,7.5-3.358,7.5-7.5v-22.618C308.919,407.78,300.449,399.31,290.037,399.31z
		 M224.155,80.97c12.407,0,22.5,10.093,22.5,22.5s-10.093,22.5-22.5,22.5s-22.5-10.093-22.5-22.5S211.748,80.97,224.155,80.97z
		 M224.155,140.97c1.271,0,2.527-0.065,3.766-0.189l22.821,134.45h-53.174l22.821-134.45
		C221.628,140.905,222.884,140.97,224.155,140.97z M195.022,290.23h58.266l18.515,109.08h-95.296L195.022,290.23z M293.919,433.31
		H154.391v-15.118c0-2.141,1.741-3.882,3.882-3.882h131.764c2.141,0,3.882,1.741,3.882,3.882V433.31z"/>
</g>
</svg>